<svg width="22" height="22" viewBox="0 0 22 22" fill="none" xmlns="http://www.w3.org/2000/svg">
<path d="M21.8813 13.2669C21.8813 18.0118 17.0962 21.8564 11.1906 21.8564C5.28509 21.8564 0.5 18.0118 0.5 13.2669C0.5 8.97209 4.42162 5.41238 9.54593 4.78055V3.35583H8.1068C7.76758 3.35583 7.49004 3.13284 7.49004 2.86028V1.20844C7.49004 0.935889 7.76758 0.712891 8.1068 0.712891H14.2745C14.6137 0.712891 14.8912 0.935889 14.8912 1.20844V2.86028C14.8912 3.13284 14.6137 3.35583 14.2745 3.35583H12.8354V4.78055C14.7628 5.02006 16.5205 5.67254 17.9597 6.62235L19.3731 5.48671C19.6147 5.29262 20.0053 5.29262 20.2468 5.48671L21.7014 6.65539C21.943 6.84948 21.943 7.16333 21.7014 7.35742L20.1903 8.57152L20.1595 8.5963C21.2491 9.93429 21.8813 11.5407 21.8813 13.2669ZM12.8354 14.7535V8.49719C12.8354 8.22463 12.5578 8.00164 12.2186 8.00164H10.1627C9.82347 8.00164 9.54593 8.22463 9.54593 8.49719V14.7535C9.54593 15.0261 9.82347 15.2491 10.1627 15.2491H12.2186C12.5578 15.2491 12.8354 15.0261 12.8354 14.7535Z" fill="#008B75"/>
</svg>
